HIERARCHY
ROOT Hips
{
	OFFSET	0.00	0.00	0.00
	CHANNELS 6 Xposition Yposition Zposition Zrotation Xrotation Yrotation
	JOINT LeftUpLeg
	{
		OFFSET	 0.126116	-0.014019	-0.065224
		CHANNELS 3 Zrotation Xrotation Yrotation
		JOINT LeftLeg
		{
			OFFSET	 0.000000	 0.000000	 0.569914
			CHANNELS 3 Zrotation Xrotation Yrotation
			JOINT LeftFoot
			{
				OFFSET	 0.000000	 0.000000	 0.544423
				CHANNELS 3 Zrotation Xrotation Yrotation
				JOINT LeftToeBase
				{
					OFFSET	 0.000000	 0.000000	 0.207117
					CHANNELS 3 Zrotation Xrotation Yrotation
					End Site
					{
						OFFSET	 0.000000	 0.000000	 0.207117
					}
				}
			}
		}
	}
	JOINT RightUpLeg
	{
		OFFSET	-0.124023	-0.008373	-0.065224
		CHANNELS 3 Zrotation Xrotation Yrotation
		JOINT RightLeg
		{
			OFFSET	 0.000000	 0.000000	 0.570047
			CHANNELS 3 Zrotation Xrotation Yrotation
			JOINT RightFoot
			{
				OFFSET	 0.000000	 0.000000	 0.544354
				CHANNELS 3 Zrotation Xrotation Yrotation
				JOINT RightToeBase
				{
					OFFSET	 0.000000	 0.000000	 0.207540
					CHANNELS 3 Zrotation Xrotation Yrotation
					End Site
					{
						OFFSET	 0.000000	 0.000000	 0.207540
					}
				}
			}
		}
	}
	JOINT Spine
	{
		OFFSET	 0.000184	-0.007763	 0.117403
		CHANNELS 3 Zrotation Xrotation Yrotation
		JOINT Spine1
		{
			OFFSET	 0.000000	 0.000000	 0.137269
			CHANNELS 3 Zrotation Xrotation Yrotation
			JOINT Spine2
			{
				OFFSET	 0.000000	 0.000000	 0.156879
				CHANNELS 3 Zrotation Xrotation Yrotation
				JOINT LeftShoulder
				{
					OFFSET	 0.080501	-0.002496	 0.160144
					CHANNELS 3 Zrotation Xrotation Yrotation
					JOINT LeftArm
					{
						OFFSET	 0.000000	 0.000000	 0.164363
						CHANNELS 3 Zrotation Xrotation Yrotation
						JOINT LeftForeArm
						{
							OFFSET	 0.000000	 0.000000	 0.364576
							CHANNELS 3 Zrotation Xrotation Yrotation
							JOINT LeftHand
							{
								OFFSET	 0.000000	 0.000000	 0.360812
								CHANNELS 3 Zrotation Xrotation Yrotation
								JOINT LeftHandIndex1
								{
									OFFSET	 0.000000	 0.000000	 0.086006
									CHANNELS 3 Zrotation Xrotation Yrotation
									JOINT LeftHandIndex2
									{
										OFFSET	 0.000000	 0.000000	 0.047236
										CHANNELS 3 Zrotation Xrotation Yrotation
										JOINT LeftHandIndex3
										{
											OFFSET	-0.004284	-0.000551	 0.038166
											CHANNELS 3 Zrotation Xrotation Yrotation
											End Site
											{
												OFFSET	-0.004284	-0.000551	 0.038166
											}
										}
									}
								}
							}
						}
					}
				}
				JOINT Neck
				{
					OFFSET	 0.000000	 0.000000	 0.176489
					CHANNELS 3 Zrotation Xrotation Yrotation
					JOINT Head
					{
						OFFSET	 0.000000	-0.001747	 0.077940
						CHANNELS 3 Zrotation Xrotation Yrotation
						End Site
						{
							OFFSET	 0.000000	-0.001747	 0.077940
						}
					}
				}
				JOINT RightShoulder
				{
					OFFSET	-0.080363	 0.000306	 0.159706
					CHANNELS 3 Zrotation Xrotation Yrotation
					JOINT RightArm
					{
						OFFSET	 0.000000	 0.000000	 0.164196
						CHANNELS 3 Zrotation Xrotation Yrotation
						JOINT RightForeArm
						{
							OFFSET	 0.000000	 0.000000	 0.365611
							CHANNELS 3 Zrotation Xrotation Yrotation
							JOINT RightHand
							{
								OFFSET	 0.000000	 0.000000	 0.360648
								CHANNELS 3 Zrotation Xrotation Yrotation
								JOINT RightHandIndex1
								{
									OFFSET	 0.000000	 0.000000	 0.069977
									CHANNELS 3 Zrotation Xrotation Yrotation
									JOINT RightHandIndex2
									{
										OFFSET	 0.000000	 0.000000	 0.052305
										CHANNELS 3 Zrotation Xrotation Yrotation
										JOINT RightHandIndex3
										{
											OFFSET	 0.009002	-0.000782	 0.042196
											CHANNELS 3 Zrotation Xrotation Yrotation
											End Site
											{
												OFFSET	 0.009002	-0.000782	 0.042196
											}
										}
									}
								}
							}
						}
					}
				}
			}
		}
	}
}
MOTION
Frames:    13
Frame Time: 0.03333334
-0.065707	 6.744686	 1.255536	-97.580510	 1.951144	 1.157315	-23.514550	-8.029815	 177.894800	 17.413550	-40.185870	 5.420530	-93.029430	 73.469130	 71.009120	-2.187397	 47.511460	-0.499076	 8.507442	-9.835521	-171.366100	-9.302464	-39.958720	-0.778487	 50.380930	 74.755960	-35.713790	 1.953779	 56.540940	 0.861058	 18.634690	 4.987208	 2.136552	-7.873457	 9.785153	-7.553442	 9.321826	-24.689950	 8.879831	-91.229260	 83.958340	 178.242600	 49.911360	 54.488170	-71.741660	-18.770360	 6.248116	-13.283020	 41.041730	 4.885199	-13.714870	-11.759480	 9.720651	-26.307580	-5.213937	-0.202400	 3.566957	-1.378229	 35.397820	-2.634230	-1.593249	 4.252914	 2.655258	-4.158715	-13.395300	-14.841530	 87.726900	 87.418890	-176.798800	-10.178340	 70.408320	 8.106950	 17.601740	 6.210978	 13.272310	-33.872010	-2.575355	 8.908545	-1.105036	 24.942670	-61.883220	 5.070519	-0.690904	-9.399550	-2.350882	 35.473990	 5.254307
-0.064743	 6.773492	 1.257151	-92.023950	 2.691981	 1.885612	-26.092640	-8.808723	 176.184100	 18.775430	-41.151930	 6.436270	-90.372230	 72.344570	 68.314090	-2.216822	 45.846920	-0.445195	 3.680676	-8.867045	-172.435800	-6.891470	-38.256740	 0.742441	 48.670130	 76.683570	-34.753200	 2.055729	 53.212230	 0.712595	 16.327930	 4.580001	 1.646066	-7.797294	 10.696700	-7.703207	 11.527180	-26.328530	 9.845280	-91.229260	 83.958270	 178.242600	 46.463910	 56.806380	-66.218350	-17.063660	 5.898059	-12.987510	 39.897940	 3.452840	-11.754180	-11.219720	 9.628356	-24.318660	-5.213937	-0.202400	 3.566957	-1.378229	 35.397820	-2.634230	 1.191754	 5.506650	-0.766626	-1.473931	-16.649170	-9.624788	 87.726950	 87.418820	-176.798900	-8.341172	 69.627110	 6.440427	 17.370000	 5.874197	 12.983510	-33.555020	-2.610915	 8.928363	-1.656211	 24.241250	-62.453320	 5.070519	-0.690904	-9.399550	-2.350882	 35.473990	 5.254307
-0.063592	 6.806350	 1.259937	-85.698490	 3.751003	 2.301811	-27.901640	-10.461340	 174.516700	 19.852640	-42.499720	 7.346775	-84.624200	 71.672930	 62.878800	-2.279983	 41.512390	-0.316938	-2.063367	-7.230656	-173.384800	-3.988685	-35.198020	 2.366940	 43.090970	 78.630910	-30.370210	 2.028713	 54.171100	 0.753099	 12.360120	 4.151424	 1.230260	-7.649971	 11.464490	-7.788830	 14.913020	-28.230900	 11.471220	-91.229190	 83.958270	 178.242500	 34.336620	 61.267970	-52.573290	-14.808890	 5.346844	-12.487130	 35.282980	 0.926911	-7.657893	-11.095260	 8.526075	-23.030560	-5.213937	-0.202400	 3.566957	-1.378229	 35.397820	-2.634230	 5.626301	 7.489531	-6.165198	 3.131793	-20.767810	-1.214049	 87.726550	 87.418960	-176.798500	-6.735475	 68.338870	 4.513757	 16.510610	 5.334823	 12.494690	-33.600580	-2.610719	 9.024099	-0.352215	 26.190630	-62.468040	 5.070519	-0.690904	-9.399550	-2.350882	 35.473990	 5.254307
-0.061856	 6.838442	 1.261341	-80.838750	 3.911964	 2.620745	-27.771960	-11.383300	 173.350500	 20.516340	-43.903190	 8.007999	-80.969940	 71.115210	 59.663970	-2.349976	 34.477420	-0.136367	-6.934818	-5.236257	-174.251900	-1.381084	-32.482620	 3.614935	 41.183760	 80.879560	-29.783860	 2.159974	 48.799270	 0.545288	 8.068211	 4.229506	 0.923537	-7.012466	 12.549060	-7.503366	 16.985930	-28.978820	 12.361050	-91.229240	 83.958310	 178.242500	 19.068820	 61.858250	-37.629880	-16.082370	 4.759921	-11.883420	 28.110470	-1.198343	-4.592195	-10.687110	 8.846795	-21.845350	-5.213937	-0.202400	 3.566957	-1.378229	 35.397820	-2.634230	 9.135697	 9.241352	-9.257823	 7.040133	-23.767860	 5.519880	 87.727010	 87.418890	-176.799000	-5.513369	 66.662160	 4.842372	 16.641370	 4.738183	 11.898950	-32.305110	-2.675880	 9.032170	-1.233115	 25.076190	-63.352950	 5.070519	-0.690904	-9.399550	-2.350882	 35.473990	 5.254307
-0.055640	 6.870725	 1.262674	-75.638470	 5.071615	 2.548933	-27.045160	-14.091710	 171.778100	 20.615610	-45.559730	 8.314253	-76.707690	 71.079400	 56.126660	-2.400449	 24.250510	 0.088503	-10.989130	-4.695116	-175.365900	 0.618023	-30.206370	 4.406688	 38.405190	 83.905550	-27.782820	 2.268092	 42.280450	 0.340540	 2.122742	 3.985052	 0.471653	-6.779259	 13.045370	-6.903506	 18.086440	-29.507870	 12.469070	-91.229190	 83.958310	 178.242500	 3.699243	 59.675980	-23.308150	-17.730830	 4.061994	-11.091030	 21.124790	-4.022014	-2.291103	-10.126690	 9.009198	-19.985220	-5.213937	-0.202400	 3.566957	-1.378229	 35.397820	-2.634230	 12.048260	 10.502070	-11.437640	 10.278190	-25.030920	 11.069240	 87.726970	 87.418890	-176.799000	-0.936647	 64.798710	 3.332737	 15.475860	 4.016728	 11.115360	-30.710620	-3.238366	 8.316710	-0.484654	 26.266060	-63.854530	 5.070519	-0.690904	-9.399550	-2.350882	 35.473990	 5.254307
-0.051418	 6.894851	 1.262671	-71.736310	 5.642134	 2.526657	-24.129240	-16.479000	 170.695200	 19.428210	-46.935090	 7.622431	-75.903790	 72.512630	 55.802790	-2.371537	 31.253020	-0.061747	-13.408180	-3.918139	-176.171600	 1.677864	-28.373900	 4.677160	 41.274380	 86.188280	-31.077200	 2.326491	 37.062940	 0.201259	-2.887141	 4.299743	 0.089524	-6.479775	 13.281250	-6.784637	 18.750010	-29.700650	 12.596030	-91.229200	 83.958340	 178.242500	-4.817743	 56.953220	-15.429450	-17.570000	 3.491291	-10.388950	 17.563160	-6.075922	-1.078010	-10.103250	 8.961128	-19.870180	-5.213937	-0.202400	 3.566957	-1.378229	 35.397820	-2.634230	 13.749340	 11.003320	-12.289130	 12.019620	-25.184540	 14.186280	 87.727040	 87.418890	-176.799000	 1.318205	 63.136760	 3.797180	 15.103510	 3.444059	 10.418520	-29.091960	-3.658835	 7.901299	-0.209031	 26.678540	-63.950470	 5.070519	-0.690904	-9.399550	-2.350882	 35.473990	 5.254307
-0.046334	 6.922706	 1.261640	-67.256900	 6.410813	 2.713455	-20.188480	-19.626750	 169.577000	 17.714700	-48.569070	 6.519582	-75.850280	 74.578210	 56.232440	-2.353827	 33.960160	-0.124112	-17.827860	-3.414248	-177.107200	 3.394946	-26.309870	 5.161047	 26.343090	 87.093510	-17.449580	 2.340359	 35.479940	 0.162136	-9.236057	 4.639404	-0.857860	-5.845490	 13.285210	-6.244900	 18.111810	-29.791680	 11.627820	-91.229320	 83.958340	 178.242600	-11.190910	 53.349660	-8.875041	-15.411030	 2.754545	-9.388628	 15.489710	-7.725116	 0.018260	-10.629910	 7.404349	-20.663960	-5.213937	-0.202400	 3.566957	-1.378229	 35.397820	-2.634230	 14.823000	 11.376970	-12.598870	 13.209040	-25.013000	 17.228410	 87.726840	 87.419040	-176.798800	 2.628310	 60.931380	 6.226933	 14.364460	 2.718321	 9.422838	-27.514870	-4.049754	 7.624155	-0.854990	 25.844000	-64.407910	 5.070519	-0.690904	-9.399550	-2.350882	 35.473990	 5.254307
-0.041241	 6.948822	 1.260188	-63.649750	 6.810324	 2.607273	-15.570450	-22.055370	 169.855500	 16.494550	-49.444270	 5.671178	-73.907500	 76.241190	 54.405080	-2.390200	 27.407630	 0.022434	-21.446570	-3.472593	-178.110700	 5.804226	-25.538120	 6.074989	-0.989368	 88.926250	 8.147196	 2.381778	 29.019630	 0.013696	-15.157180	 4.989841	-0.914558	-4.970011	 13.794050	-7.100248	 17.996450	-29.870310	 12.190030	-91.229140	 83.958340	 178.242400	-14.972450	 50.598310	-4.535561	-11.876490	 2.021045	-8.234860	 14.741190	-8.409574	 0.817447	-10.738300	 6.644849	-20.539770	-5.213937	-0.202400	 3.566957	-1.378229	 35.397820	-2.634230	 15.519150	 12.011540	-12.549900	 13.904230	-25.546120	 19.101890	 87.726940	 87.419110	-176.798900	 4.655321	 59.396190	 7.833063	 11.833180	 1.990716	 8.273625	-26.928190	-4.653446	 6.963110	-1.230107	 25.203690	-63.922760	 5.070519	-0.690904	-9.399550	-2.350882	 35.473990	 5.254307
-0.037835	 6.968899	 1.259019	-60.067870	 7.011605	 2.314184	-12.593420	-23.575130	 170.662900	 15.207620	-49.723310	 4.706978	-72.322530	 77.609240	 52.949100	-2.407805	 19.958850	 0.175030	-25.319030	-3.714244	-178.979700	 7.731945	-25.519680	 6.960906	-110.979900	 88.004920	 116.954500	 2.401016	 23.464760	-0.103377	-19.843480	 5.321739	-1.044342	-4.421492	 14.291080	-6.789674	 16.497640	-30.899210	 11.332220	-91.229260	 83.958310	 178.242600	-15.022430	 49.675910	-2.511740	-8.730794	 1.451684	-7.168808	 15.325880	-8.195539	 1.023711	-10.074060	 7.040148	-18.567910	-5.213937	-0.202400	 3.566957	-1.378229	 35.397820	-2.634230	 15.600100	 12.138660	-13.414970	 14.013170	-25.936270	 20.201390	 87.726910	 87.418960	-176.798900	 4.623178	 60.693680	 3.075285	 10.146640	-0.725390	 21.750510	-26.018080	-5.102793	 6.589688	-1.997213	 24.066180	-63.850170	 5.070519	-0.690904	-9.399550	-2.350882	 35.473990	 5.254307
-0.033391	 6.994268	 1.257361	-54.752370	 7.289735	 1.538656	-7.264383	-25.709500	 172.422500	 12.439300	-49.570130	 2.582745	-70.202160	 80.653820	 50.933690	-2.365605	 32.230340	-0.083941	-29.509990	-5.073034	-179.723300	 9.952167	-27.452750	 8.540420	-133.692100	 85.526130	 138.454500	 2.407369	 18.792190	-0.196975	-25.237780	 5.789164	-0.651254	-3.747756	 14.529720	-6.547238	 14.774090	-31.649910	 10.629160	-91.229340	 83.958340	 178.242600	-13.553910	 49.011240	-2.076448	-5.326755	 0.810797	-5.666052	 16.645940	-7.666617	 0.830595	-9.491280	 9.227665	-17.861580	-5.213937	-0.202400	 3.566957	-1.378229	 35.397820	-2.634230	 15.295620	 12.064140	-13.795290	 13.700710	-26.169080	 20.926790	 87.726810	 87.418890	-176.798800	 5.476497	 61.283150	 1.411681	 7.333987	-3.239145	 25.373620	-25.846170	-5.611609	 6.004602	-1.824821	 24.053550	-62.729760	 5.070519	-0.690904	-9.399550	-2.350882	 35.473990	 5.254307
-0.031087	 7.015197	 1.255158	-49.357720	 7.359050	 1.077714	-0.961498	-27.369800	 174.284500	 8.458904	-50.165700	-0.452385	-71.905780	 84.466930	 53.328220	-2.345321	 35.074990	-0.150684	-34.101540	-6.119458	 179.603700	 12.076060	-29.514260	 10.255520	-147.574500	 82.895470	 151.211500	 2.406494	 14.861100	-0.273515	-29.653480	 5.814602	-0.714373	-3.152875	 15.031380	-5.481363	 13.030350	-31.893280	 9.418000	-91.229270	 83.958340	 178.242600	-11.259990	 49.853890	-3.208946	-1.759110	 0.323497	-4.110109	 18.402400	-6.935645	 0.483997	-9.766367	 9.018277	-18.712850	-5.213937	-0.202400	 3.566957	-1.378229	 35.397820	-2.634230	 15.028110	 12.433520	-13.803460	 13.541260	-26.748000	 21.920020	 87.726780	 87.418890	-176.798700	 3.609757	 61.775960	 2.990145	 5.391194	-4.816657	 25.095350	-25.725990	-5.537942	 6.252322	-2.294966	 23.454310	-63.162410	 5.070519	-0.690904	-9.399550	-2.350882	 35.473990	 5.254307
-0.031133	 7.027960	 1.253304	-45.191140	 7.190074	 0.928949	 6.035221	-28.211570	 175.572300	 4.311467	-51.964200	-3.733802	-97.722950	 87.233460	 80.335120	-2.352417	 34.152010	-0.128642	-37.611020	-6.113194	 179.045300	 13.126100	-30.249540	 11.065430	-151.659100	 81.871000	 154.657100	 2.399591	 10.629710	-0.354663	-31.917650	 6.025933	-0.728086	-2.278233	 14.973450	-5.112571	 11.337190	-31.926380	 8.540633	-91.229480	 83.958340	 178.242800	-8.702871	 51.938250	-4.993789	 0.961307	 0.044451	-2.798799	 19.684550	-6.299592	 0.022221	-10.084260	 8.021451	-19.197360	-5.213937	-0.202400	 3.566957	-1.378229	 35.397820	-2.634230	 14.498060	 12.800670	-13.778990	 13.111420	-27.331870	 22.263540	 87.726840	 87.418960	-176.798800	 2.389713	 61.689010	 4.667728	 2.916325	-5.524521	 21.882960	-25.973480	-5.431528	 6.395996	-1.124925	 24.722230	-61.045890	 5.070519	-0.690904	-9.399550	-2.350882	 35.473990	 5.254307
-0.032412	 7.038268	 1.251470	-40.152760	 6.944822	 0.792432	 16.893810	-28.839100	 176.990300	-1.621524	-54.526880	-8.722913	-174.929200	 87.350330	 159.398200	-2.383623	 28.938550	-0.010528	-40.114080	-5.936828	 178.397300	 13.541350	-31.133080	 11.587190	-161.490800	 77.698690	 164.544400	 2.361017	 0.863325	-0.541977	-33.114270	 6.200776	-0.603832	-0.962146	 14.639690	-4.621574	 9.048003	-31.836860	 7.400195	-91.229260	 83.958270	 178.242600	-4.794092	 55.469270	-7.818132	 4.524829	-0.149206	-1.087207	 21.471700	-5.455072	-0.644377	-10.169700	 7.425990	-19.121670	-5.213937	-0.202400	 3.566957	-1.378229	 35.397820	-2.634230	 13.607230	 12.737880	-13.441260	 12.216010	-27.685450	 21.661470	 87.726940	 87.418890	-176.798900	 0.863342	 62.290680	 7.018534	-1.732638	-5.683805	 15.648310	-27.033260	-5.306972	 6.371764	-0.995492	 25.056790	-61.649660	 5.070519	-0.690904	-9.399550	-2.350882	 35.473990	 5.254307
